<svg width="16" height="8" viewBox="0 0 16 8" fill="none" xmlns="http://www.w3.org/2000/svg">
<path d="M8.61723 0.0249314C8.58279 0.0437136 8.53897 0.10632 8.51392 0.165797C8.47323 0.259707 8.47636 0.300402 8.51392 0.47257C8.63914 1.0016 8.69235 1.54315 8.71114 2.36956C8.72679 3.1271 8.68922 4.00046 8.63914 4.13507C8.61723 4.19454 8.52018 4.20081 8.47949 4.14446C8.46071 4.12568 8.35115 3.79699 8.23532 3.41822C7.76577 1.87809 7.15536 0.366139 6.91745 0.153275C6.81415 0.0624957 6.64198 0.0624957 6.03156 0.150145C5.21768 0.269098 4.30675 0.544568 4.23788 0.697955C4.21597 0.74804 4.22223 0.892036 4.26292 1.20194C4.3537 1.90001 4.33179 3.69056 4.22536 4.0349C4.20345 4.10377 4.1158 4.13194 4.06884 4.08498C4.04693 4.06307 3.99371 3.88151 3.94989 3.6843C3.80276 3.02693 3.42712 1.89061 3.22365 1.48993C3.14852 1.33967 3.00766 1.24263 2.86053 1.24263C2.71653 1.24263 1.96525 1.7341 1.48318 2.14104C0.756942 2.75459 0.28113 3.45891 0.0745276 4.21646C-0.0193826 4.56706 -0.0256433 5.27451 0.0620063 5.59381C0.425126 6.92733 1.80561 7.63166 4.55717 7.89148C5.51506 7.98226 6.64198 8.01356 8.56088 7.99478C10.389 7.97913 10.8429 7.96034 11.757 7.86017C14.2706 7.59096 15.6229 6.8522 15.9422 5.57816C16.0267 5.23695 16.0173 4.5921 15.9266 4.24776C15.7575 3.62482 15.4163 3.08327 14.809 2.47912C14.4115 2.08157 14.0045 1.74662 13.5475 1.44611C13.2752 1.26455 13.1437 1.24889 13.0154 1.38037L12.934 1.45863L12.9308 2.37582C12.9277 3.28049 12.8776 3.96916 12.8119 4.05368C12.7931 4.07559 12.7524 4.09124 12.718 4.08498C12.6648 4.07559 12.6335 3.98794 12.5082 3.48083C12.4237 3.15214 12.2829 2.66694 12.1889 2.40086C11.8603 1.47115 11.4314 0.522656 11.2874 0.422485C11.1872 0.350487 10.3984 0.168927 9.8318 0.0844083C9.27773 0.00301933 8.69548 -0.0251541 8.61723 0.0249314Z" fill="#B07000"/>
</svg>
