<svg width="9" height="15" viewBox="0 0 9 15" fill="none" xmlns="http://www.w3.org/2000/svg">
<path d="M4.31049 0.734019C4.19298 0.792773 4.17899 0.812358 3.76771 1.55377C1.60781 5.44831 0.23689 8.57066 0.0214599 10.0843C-0.0233049 10.4032 0.00467313 11.0579 0.0802137 11.4076C0.460714 13.1982 1.85402 14.5719 3.66699 14.9329C4.12024 15.0224 4.88124 15.0224 5.33448 14.9329C7.40765 14.5188 8.92126 12.7757 8.9968 10.7138C9.01918 10.1094 8.92686 9.60864 8.63309 8.73013C8.24139 7.56625 7.76577 6.4751 6.86208 4.65374C6.19061 3.3052 5.03232 1.13131 4.83368 0.851527C4.72736 0.697648 4.48955 0.644489 4.31049 0.734019ZM7.13067 10.1514C7.29014 10.2633 7.33211 10.4116 7.29854 10.7417C7.19222 11.7573 6.59629 12.6135 5.6898 13.0443C5.41002 13.1758 5.27013 13.1926 5.11905 13.1059C4.99315 13.0359 4.89243 12.8681 4.89243 12.7282C4.89243 12.6834 4.92041 12.5967 4.95678 12.5351C5.00994 12.4428 5.06589 12.4036 5.32609 12.2721C5.58908 12.1406 5.66742 12.0847 5.87446 11.8805C6.0731 11.6818 6.13745 11.5951 6.24656 11.3741C6.38086 11.0971 6.4564 10.8145 6.4592 10.5767C6.46199 10.406 6.54033 10.2214 6.63826 10.1542C6.78654 10.0591 6.99637 10.0563 7.13067 10.1514Z" fill="#F1D248"/>
</svg>
