<svg width="16" height="21" viewBox="0 0 16 21" fill="none" xmlns="http://www.w3.org/2000/svg">
<path d="M7.276 0.0380459C7.08751 0.0941944 6.92307 0.238575 6.5942 0.635622C5.13435 2.40028 4.28812 4.51386 4.1678 6.69161C4.14374 7.20095 4.11566 7.27314 3.95123 7.24908C3.89508 7.24106 3.81487 7.15282 3.71059 6.97636C3.62637 6.83198 3.5221 6.6515 3.47397 6.5753C3.3336 6.33868 3.1451 6.23841 2.81623 6.22237C2.57961 6.21435 2.50341 6.22638 2.37106 6.30258C2.18256 6.41488 1.92187 6.72369 1.54488 7.29319C-0.0513364 9.69554 -0.436353 12.7155 0.510146 15.3745C1.38846 17.841 3.36167 19.6298 5.91641 20.2674C6.65436 20.4559 7.12761 20.5081 7.98588 20.5121C8.86821 20.5121 9.30135 20.464 10.0112 20.2915C13.2277 19.5014 15.4135 17.055 15.9308 13.654C16.0151 13.1085 16.0231 11.8492 15.9509 11.3078C15.7464 9.81184 15.2571 8.48033 14.467 7.29319C13.8814 6.41087 13.6528 6.21435 13.2277 6.21435C12.8627 6.21435 12.6021 6.40284 12.3975 6.81594C12.2371 7.13678 12.0326 7.37742 11.9163 7.37742C11.7959 7.37742 11.7518 7.2972 11.7157 6.99641C11.6716 6.59936 11.431 5.73308 11.2625 5.34004C10.9417 4.59808 10.5847 4.09275 10.0192 3.57538C9.24921 2.87754 8.95243 2.55669 8.80003 2.26392C8.62356 1.92302 8.49923 1.4979 8.46715 1.10887C8.42704 0.635622 8.37089 0.47921 8.17036 0.278681C7.9177 0.0300236 7.59284 -0.0582085 7.276 0.0380459ZM3.43386 10.6982C3.51006 10.7944 3.51407 10.8626 3.51407 12.2182V13.6339L3.62637 13.6099C3.99133 13.5176 4.29213 13.3011 4.46458 12.9962C4.63303 12.7035 4.71324 12.6313 4.87767 12.6313C5.03409 12.6313 5.16644 12.7356 5.21857 12.904C5.25868 13.0444 5.07018 13.3973 4.79746 13.6861L4.56485 13.9347L4.72527 14.1553C4.94585 14.4601 5.06216 14.7007 5.15841 15.0497C5.27472 15.4788 5.18649 15.6753 4.87366 15.6793C4.68115 15.6793 4.58891 15.567 4.50068 15.2342C4.42047 14.9253 4.26405 14.6446 4.05149 14.408L3.89508 14.2355L3.70658 14.2796L3.51407 14.3238V14.9013C3.51407 15.4668 3.51006 15.4868 3.41381 15.5791C3.28146 15.7154 3.06489 15.7154 2.93254 15.5791L2.83227 15.4828V13.1406C2.83227 10.8506 2.83227 10.7944 2.91249 10.6942C3.04484 10.5257 3.30151 10.5257 3.43386 10.6982ZM12.4978 10.6982C12.574 10.7944 12.578 10.8666 12.578 12.6233C12.578 14.3919 12.582 14.4561 12.6622 14.6245C12.7665 14.8411 12.9149 14.9454 13.1756 14.9975C13.4483 15.0497 13.5205 15.0898 13.5806 15.2382C13.6248 15.3465 13.6248 15.3866 13.5686 15.4989C13.4924 15.6593 13.3881 15.6954 13.0833 15.6713C12.6542 15.6352 12.2572 15.3505 12.0486 14.9253L11.9163 14.6566L11.9042 12.7436C11.8962 11.388 11.9082 10.8025 11.9363 10.7423C11.9925 10.638 12.193 10.5538 12.3213 10.5779C12.3735 10.5859 12.4537 10.642 12.4978 10.6982ZM7.63696 12.7556C7.93775 12.904 8.12625 13.1166 8.12625 13.3051C8.12625 13.5978 7.75727 13.7462 7.56075 13.5337C7.42038 13.3813 7.26798 13.3131 7.07948 13.3131C6.93911 13.3131 6.88698 13.3371 6.75864 13.4695L6.60222 13.6259V14.1353C6.60222 14.5363 6.61827 14.6687 6.66639 14.7569C6.85088 15.0657 7.28402 15.0818 7.56075 14.781C7.6931 14.6406 7.89363 14.6406 8.02598 14.7769C8.25058 14.9975 8.08213 15.3344 7.63696 15.555C7.0474 15.8518 6.34956 15.6232 6.03272 15.0256C5.9485 14.8692 5.94048 14.805 5.94048 14.1553C5.94048 13.3652 5.96855 13.265 6.26935 12.9722C6.53003 12.7195 6.73056 12.6393 7.12761 12.6353C7.34819 12.6313 7.43242 12.6513 7.63696 12.7556ZM10.7572 12.7717C10.8775 12.8479 10.9978 12.9682 11.074 13.0885L11.1943 13.285L11.2064 14.055C11.2144 14.5203 11.2024 14.8892 11.1783 14.9855C11.1101 15.2301 10.9216 15.4628 10.693 15.5791C10.5166 15.6713 10.4484 15.6793 10.0233 15.6793C9.65027 15.6793 9.51792 15.6633 9.38958 15.6031C8.83211 15.3465 8.64762 14.6566 9.00858 14.1673C9.07275 14.0791 9.22114 13.9588 9.33343 13.8946C9.52594 13.7903 9.59011 13.7783 10.0393 13.7623L10.5326 13.7422V13.6179C10.5326 13.3612 10.4765 13.3371 9.89893 13.3131C9.41365 13.293 9.36953 13.285 9.27327 13.1968C9.1329 13.0644 9.1329 12.8639 9.26926 12.7275C9.36953 12.6273 9.37755 12.6273 9.96711 12.6393C10.5446 12.6513 10.5647 12.6553 10.7572 12.7717Z" fill="#E3664F"/>
<path d="M9.59427 14.5363C9.48999 14.6446 9.47796 14.7609 9.55817 14.8732C9.63437 14.9695 9.66245 14.9775 10.0033 14.9895C10.4485 15.0016 10.5327 14.9494 10.5327 14.6566V14.4762H10.0956C9.7587 14.4762 9.64239 14.4882 9.59427 14.5363Z" fill="#E3664F"/>
</svg>
