<svg width="15" height="14" viewBox="0 0 15 14" fill="none" xmlns="http://www.w3.org/2000/svg">
<path d="M7.53231 0.975804C7.04158 1.06996 6.68494 1.21546 6.27124 1.49222C5.7748 1.82032 5.32116 2.36241 5.10433 2.88738C4.94455 3.26969 4.89605 3.51221 4.88179 3.97441C4.86752 4.45373 4.90176 4.68768 5.08721 5.32107C5.26695 5.94875 5.69206 6.92451 5.76625 6.88172C5.78622 6.8703 5.87181 6.81039 5.96311 6.75333C6.80192 6.18841 7.90036 5.95731 8.83903 6.14562C10.1572 6.41381 11.2528 7.3753 11.675 8.64208C11.889 9.27832 11.9375 9.97733 11.8091 10.6022C11.772 10.779 11.7492 10.9303 11.7549 10.936C11.7749 10.9559 12.2085 10.8675 12.3968 10.8047C14.1971 10.2141 15.1044 8.14564 14.3056 6.45375C13.9261 5.65488 13.287 5.08712 12.354 4.73048C12.2228 4.67913 12.0202 4.57641 11.9061 4.49938C11.5181 4.23975 11.3212 3.94588 11.1386 3.35814C10.7506 2.11419 9.93462 1.30676 8.77056 1.0186C8.46528 0.94442 7.82333 0.921596 7.53231 0.975804Z" fill="#A9D159"/>
<path d="M7.57525 6.7162C7.12731 6.79608 6.67367 6.98439 6.23429 7.26684C5.58664 7.68625 5.13585 7.74046 4.38549 7.48653C3.90616 7.32391 3.58947 7.2697 3.14724 7.2697C2.43397 7.2697 1.81484 7.47512 1.25564 7.89738C-0.23368 9.01865 -0.430544 11.2326 0.839085 12.605C1.19287 12.9845 1.72355 13.2983 2.43397 13.5465C3.86052 14.0401 5.41831 14.1342 6.87053 13.8118C7.91191 13.5836 8.8192 13.1927 9.6951 12.6021C10.3656 12.1513 10.6908 11.8033 10.9647 11.2498C11.7465 9.67771 11.0674 7.72334 9.48112 6.97012C9.24431 6.85885 8.8677 6.74187 8.60236 6.69908C8.357 6.65913 7.84059 6.66769 7.57525 6.7162ZM10.046 9.75474C10.143 9.86031 10.1487 10.0144 10.066 10.3396C9.96044 10.7562 9.73504 11.11 9.4155 11.3667C8.98468 11.7091 8.31135 12.0971 7.79494 12.3026C7.54957 12.3996 7.52389 12.4024 7.42403 12.371C7.34129 12.3425 7.2985 12.3083 7.25855 12.2255C7.2129 12.1285 7.21005 12.1057 7.24714 12.0115C7.27282 11.9402 7.31847 11.8917 7.38409 11.8575C7.4383 11.8318 7.68367 11.7148 7.92618 11.5978C8.43688 11.3496 8.92762 11.0358 9.15586 10.8104C9.35558 10.6107 9.48397 10.351 9.52677 10.0657C9.56386 9.81751 9.60665 9.73477 9.73219 9.67771C9.85202 9.62635 9.94903 9.64918 10.046 9.75474Z" fill="#A9D159"/>
</svg>
