<svg width="10" height="10" viewBox="0 0 18 18" fill="none" xmlns="http://www.w3.org/2000/svg">
<path d="M1.47995 0.0474281C0.841477 0.201414 0.293137 0.753508 0.146663 1.38447C0.0415022 1.83516 0.120373 2.36473 0.349474 2.75157C0.402054 2.83795 1.92313 4.38532 3.72965 6.19183L7.01968 9.47811L3.68458 12.8207C0.0940826 16.4187 0.191732 16.3098 0.0527694 16.8394C-0.0561473 17.2713 0.00394468 17.7182 0.22929 18.1426C0.58233 18.8074 1.41235 19.1304 2.2912 18.9464C2.817 18.8337 2.67804 18.9576 6.24975 15.3897C8.06754 13.5756 9.57359 12.0884 9.59237 12.0884C9.61115 12.0884 11.1172 13.5719 12.935 15.3897C15.9997 18.4506 16.2588 18.6985 16.4842 18.8036C17.2616 19.1642 18.2005 19.0177 18.7376 18.4506C19.2446 17.9173 19.3611 17.0985 19.0306 16.4112C18.9216 16.1821 18.6587 15.9117 15.549 12.8132L12.1838 9.46684L15.4551 6.18432C17.4945 4.14119 18.7639 2.84171 18.824 2.73654C18.9893 2.4436 19.0493 2.16567 19.0306 1.76381C19.008 1.33189 18.9179 1.06899 18.6813 0.753508C18.2193 0.141321 17.3818 -0.117825 16.6532 0.130054C16.2363 0.269016 16.0485 0.445536 12.7885 3.70928L9.59613 6.90167L6.30985 3.62665C2.77569 0.111275 2.86207 0.18639 2.34378 0.0511837C2.08463 -0.0164204 1.74286 -0.0164204 1.47995 0.0474281Z" fill="#B5B5B5"/>
</svg>
